<?xml version="1.0" encoding="UTF-8" standalone="no"?>
<!-- Generator: Adobe Illustrator 14.0.0, SVG Export Plug-In . SVG Version: 6.00 Build 43363)  -->

<svg
   xmlns:dc="http://purl.org/dc/elements/1.1/"
   xmlns:cc="http://creativecommons.org/ns#"
   xmlns:rdf="http://www.w3.org/1999/02/22-rdf-syntax-ns#"
   xmlns:svg="http://www.w3.org/2000/svg"
   xmlns="http://www.w3.org/2000/svg"
   xmlns:sodipodi="http://sodipodi.sourceforge.net/DTD/sodipodi-0.dtd"
   xmlns:inkscape="http://www.inkscape.org/namespaces/inkscape"
   version="1.1"
   id="svg2228"
   sodipodi:version="0.32"
   inkscape:version="0.91 r13725"
   sodipodi:modified="true"
   sodipodi:docname="betadecay.svg"
   inkscape:output_extension="org.inkscape.output.svg.inkscape"
   x="0px"
   y="0px"
   width="310px"
   height="310px"
   viewBox="0 0 310 310"
   enable-background="new 0 0 310 310"
   xml:space="preserve"><metadata
     id="metadata93"><rdf:RDF><cc:Work
         rdf:about=""><dc:format>image/svg+xml</dc:format><dc:type
           rdf:resource="http://purl.org/dc/dcmitype/StillImage" /></cc:Work></rdf:RDF></metadata><defs
     id="defs91" /><sodipodi:namedview
     height="310px"
     width="310px"
     id="base"
     inkscape:object-bbox="false"
     inkscape:window-y="34"
     inkscape:window-x="84"
     inkscape:window-height="968"
     inkscape:window-width="1280"
     inkscape:object-paths="false"
     inkscape:object-points="false"
     inkscape:guide-points="false"
     inkscape:grid-bbox="false"
     inkscape:object-nodes="false"
     inkscape:grid-points="false"
     inkscape:current-layer="layer1"
     inkscape:document-units="px"
     inkscape:pageshadow="2"
     inkscape:pageopacity="0.0"
     objecttolerance="50"
     guidetolerance="10"
     gridtolerance="50"
     borderopacity="1.0"
     inkscape:cy="89.102531"
     bordercolor="#666666"
     inkscape:cx="153.723"
     pagecolor="#ffffff"
     inkscape:zoom="2.8"
     showgrid="true"
     inkscape:window-maximized="0"><inkscape:grid
       id="GridFromPre046Settings"
       type="xygrid"
       originx="0px"
       originy="0px"
       spacingx="1px"
       spacingy="1px"
       color="#3f3fff"
       empcolor="#3f3fff"
       opacity="0.15"
       empopacity="0.38"
       empspacing="5" /></sodipodi:namedview><g
     id="layer1"
     inkscape:label="Layer 1"
     inkscape:groupmode="layer"><path
       id="path2339"
       sodipodi:nodetypes="csssssssssssssss"
       inkscape:transform-center-y="-12.654598"
       inkscape:transform-center-x="-40.816636"
       fill="none"
       stroke="#000000"
       stroke-width="2"
       d="   M125.368,170.183c0.211-6.429,0.436-12.811,1.174-17.297c0.739-4.487,2.01-7.017,3.982-6.963c1.973,0.054,4.644,2.68,7.74,6.868   c3.096,4.188,6.595,9.862,9.96,15.043c3.365,5.18,6.572,9.776,9.176,12.15c2.603,2.375,4.59,2.48,5.902,0.107   s1.961-7.197,2.31-13.119c0.35-5.921,0.424-12.854,0.773-18.775c0.349-5.921,0.997-10.746,2.31-13.119   c1.313-2.374,3.301-2.267,5.903,0.107c2.603,2.374,5.81,6.97,9.175,12.151s6.865,10.854,9.961,15.042s5.767,6.814,7.739,6.868   s3.243-2.476,3.982-6.963c0.739-4.486,0.964-10.868,1.175-17.297"
       style="stroke:#ffffff;stroke-opacity:1" /><path
       id="path3314"
       fill="none"
       stroke="#000000"
       stroke-width="2"
       d="M77.2,259.725l48.294-90.021"
       style="stroke:#ffffff;stroke-opacity:1" /><path
       id="path3316"
       fill="none"
       stroke="#000000"
       stroke-width="2"
       d="M82.944,57.899l42.423,111.941"
       style="stroke:#ffffff;stroke-opacity:1" /><path
       id="path3320"
       sodipodi:nodetypes="cc"
       fill="none"
       stroke="#000000"
       stroke-width="2"
       d="M206.547,145.077l20.635-87.621"
       style="stroke:#ffffff;stroke-opacity:1" /><path
       id="path3322"
       sodipodi:nodetypes="cc"
       fill="none"
       stroke="#000000"
       stroke-width="2"
       d="M206.52,145.105l65.924-48.609"
       style="stroke:#ffffff;stroke-opacity:1" /><path
       id="path4544"
       fill="none"
       stroke="#000000"
       d="M65.322,259.725l48.294-90.021"
       style="stroke:#ffffff;stroke-opacity:1" /><path
       id="path4546"
       fill="none"
       stroke="#000000"
       d="M71.066,57.899l42.422,111.941"
       style="stroke:#ffffff;stroke-opacity:1" /><path
       id="path4548"
       fill="none"
       stroke="#000000"
       d="M53.444,259.725l48.294-90.021"
       style="stroke:#ffffff;stroke-opacity:1" /><path
       id="path4550"
       fill="none"
       stroke="#000000"
       d="M59.188,57.899l42.422,111.941"
       style="stroke:#ffffff;stroke-opacity:1" /><g
       id="g4729"
       style="stroke:#ffffff;stroke-opacity:1;fill:#ffffff;fill-opacity:1"><path
         id="path4735"
         d="M92.136,221.646l10.447-9.274l-1.95,13.832C99.115,223.012,95.677,221.182,92.136,221.646z"
         style="stroke:#ffffff;stroke-opacity:1;fill:#ffffff;fill-opacity:1" /></g><g
       id="g4675"
       transform="translate(-1.6071429,-4.6428572)"
       style="stroke:#ffffff;stroke-opacity:1;fill:#ffffff;fill-opacity:1"><path
         id="path4681"
         d="M103.337,125.369l-0.138-13.969l9.154,10.552C108.949,121.002,105.312,122.393,103.337,125.369z"
         style="stroke:#ffffff;stroke-opacity:1;fill:#ffffff;fill-opacity:1" /></g><g
       id="g4721"
       style="stroke:#ffffff;stroke-opacity:1;fill:#ffffff;fill-opacity:1"><path
         id="path4727"
         d="M84.864,218.18l5.223-4.637l-0.975,6.916C88.353,218.863,86.634,217.948,84.864,218.18z"
         style="stroke:#ffffff;stroke-opacity:1;fill:#ffffff;fill-opacity:1" /></g><g
       id="g4697"
       style="stroke:#ffffff;stroke-opacity:1;fill:#ffffff;fill-opacity:1"><path
         id="path4703"
         d="M91.868,119.62l-0.069-6.984l4.577,5.276C94.674,117.436,92.856,118.132,91.868,119.62z"
         style="stroke:#ffffff;stroke-opacity:1;fill:#ffffff;fill-opacity:1" /></g><g
       id="g4713"
       style="stroke:#ffffff;stroke-opacity:1;fill:#ffffff;fill-opacity:1"><path
         id="path4719"
         d="M72.986,218.18l5.223-4.637l-0.975,6.916C76.475,218.863,74.756,217.948,72.986,218.18z"
         style="stroke:#ffffff;stroke-opacity:1;fill:#ffffff;fill-opacity:1" /></g><g
       id="g4705"
       style="stroke:#ffffff;stroke-opacity:1;fill:#ffffff;fill-opacity:1"><path
         id="path4711"
         d="M79.99,119.62l-0.069-6.984l4.577,5.276C82.796,117.436,80.978,118.132,79.99,119.62z"
         style="stroke:#ffffff;stroke-opacity:1;fill:#ffffff;fill-opacity:1" /></g><g
       id="g4667"
       transform="translate(3.75,-2.6785714)"
       style="stroke:#ffffff;stroke-opacity:1;fill:#ffffff;fill-opacity:1"><path
         id="path4673"
         d="M228.188,123.114l13.414-3.9l-7.691,11.661C233.907,127.341,231.586,124.213,228.188,123.114z"
         style="stroke:#ffffff;stroke-opacity:1;fill:#ffffff;fill-opacity:1" /></g><path
       id="path4626"
       sodipodi:nodetypes="csssssssssssssss"
       inkscape:transform-center-y="-12.654598"
       inkscape:transform-center-x="-40.816636"
       fill="none"
       stroke="#000000"
       stroke-width="2"
       d="   M125.368,170.183c0.211-6.429,0.436-12.811,1.174-17.297c0.739-4.487,2.01-7.017,3.982-6.963c1.973,0.054,4.644,2.68,7.74,6.868   c3.096,4.188,6.595,9.862,9.96,15.043c3.365,5.18,6.572,9.776,9.176,12.15c2.603,2.375,4.59,2.48,5.902,0.107   s1.961-7.197,2.31-13.119c0.35-5.921,0.424-12.854,0.773-18.775c0.349-5.921,0.997-10.746,2.31-13.119   c1.313-2.374,3.301-2.267,5.903,0.107c2.603,2.374,5.81,6.97,9.175,12.151s6.865,10.854,9.961,15.042s5.767,6.814,7.739,6.868   s3.243-2.476,3.982-6.963c0.739-4.486,0.964-10.868,1.175-17.297"
       style="stroke:#ffffff;stroke-opacity:1" /><g
       id="g4745"
       transform="matrix(0.9802606,-0.19771,0.19771,0.9802606,-66.341923,97.155121)"
       inkscape:transform-center-y="6.5502967"
       inkscape:transform-center-x="1.2512758"
       style="stroke:#ffffff;stroke-opacity:1;fill:#ffffff;fill-opacity:1"><path
         id="path4747"
         d="M209.727,110.369l7.699-11.657l1.687,13.867C216.822,109.888,213.028,109.007,209.727,110.369z"
         style="stroke:#ffffff;stroke-opacity:1;fill:#ffffff;fill-opacity:1" /></g><g
       id="g2378"
       transform="matrix(-0.9999968,-2.5532833e-3,2.5532833e-3,-0.9999968,432.47378,207.73137)"
       inkscape:transform-center-y="-6.9500721"
       inkscape:transform-center-x="-4.5586021"
       style="stroke:#ffffff;stroke-opacity:1;fill:#ffffff;fill-opacity:1"><path
         id="path2380"
         d="M209.727,110.371l7.698-11.657l1.688,13.867C216.822,109.89,213.029,109.009,209.727,110.371z"
         style="stroke:#ffffff;stroke-opacity:1;fill:#ffffff;fill-opacity:1" /></g></g></svg>